<svg version="1.1" xmlns="http://www.w3.org/2000/svg" width="30" height="30" viewBox="0 0 416 448">
<path d="M109.75 317.75l-64 64c-1.75 1.5-3.75 2.25-5.75 2.25s-4-0.75-5.75-2.25c-3-3.25-3-8.25 0-11.5l64-64c3.25-3 8.25-3 11.5 0 3 3.25 3 8.25 0 11.5zM152 328v80c0 4.5-3.5 8-8 8s-8-3.5-8-8v-80c0-4.5 3.5-8 8-8s8 3.5 8 8zM96 272c0 4.5-3.5 8-8 8h-80c-4.5 0-8-3.5-8-8s3.5-8 8-8h80c4.5 0 8 3.5 8 8zM412 304c0 19.25-7.5 37.25-21.25 50.75l-36.75 36.5c-13.5 13.5-31.5 20.75-50.75 20.75s-37.5-7.5-51-21.25l-83.5-83.75c-4.25-4.25-7.5-9-10.5-14l59.75-4.5 68.25 68.5c9 9 25 9.25 34 0.25l36.75-36.5c4.5-4.5 7-10.5 7-16.75 0-6.5-2.5-12.5-7-17l-68.5-68.75 4.5-59.75c5 3 9.75 6.25 14 10.5l84 84c13.5 13.75 21 31.75 21 51zM257.75 123l-59.75 4.5-68.25-68.5c-4.5-4.5-10.5-7-17-7s-12.5 2.5-17 6.75l-36.75 36.5c-4.5 4.5-7 10.5-7 16.75 0 6.5 2.5 12.5 7 17l68.5 68.5-4.5 60c-5-3-9.75-6.25-14-10.5l-84-84c-13.5-13.75-21-31.75-21-51s7.5-37.25 21.25-50.75l36.75-36.5c13.5-13.5 31.5-20.75 50.75-20.75s37.5 7.5 51 21.25l83.5 83.75c4.25 4.25 7.5 9 10.5 14zM416 144c0 4.5-3.5 8-8 8h-80c-4.5 0-8-3.5-8-8s3.5-8 8-8h80c4.5 0 8 3.5 8 8zM280 8v80c0 4.5-3.5 8-8 8s-8-3.5-8-8v-80c0-4.5 3.5-8 8-8s8 3.5 8 8zM381.75 45.75l-64 64c-1.75 1.5-3.75 2.25-5.75 2.25s-4-0.75-5.75-2.25c-3-3.25-3-8.25 0-11.5l64-64c3.25-3 8.25-3 11.5 0 3 3.25 3 8.25 0 11.5z"></path>
</svg>
