<svg version="1.1" xmlns="http://www.w3.org/2000/svg" width="20" height="20" viewBox="0 0 1010 1024">
<path d="M110.851 522.427c0 0 38.414-36.219 85.608-23.048 48.292 13.17 87.803 46.096 117.436 79.023s42.804 75.73 42.804 75.73 152.557-206.337 274.384-331.456c113.046-116.339 224.995-189.874 238.165-199.751s31.829-21.951 41.706-9.878 18.658 23.048 8.78 35.121-166.825 192.069-248.043 299.627c-91.095 120.729-147.070 235.97-235.97 367.674-21.951 34.024-76.827 110.851-120.729 105.363-12.073-1.098-47.194-113.046-58.169-134.997-24.146-48.292-60.364-118.534-127.314-186.581-30.731-28.536-54.877-43.901-18.658-76.827z"></path>
</svg>
