<svg width="295" height="122" xmlns="http://www.w3.org/2000/svg" viewBox="102.279 13.703 295.442 122.595">
    <path fill="none" stroke="#fff" d="M159.558 61.83q2.97 0 2.97 5.53 0 3.22-1.33 7.68-1.33 4.45-3.79 7.83.21.05 3 .92t4.48 1.13q.92-5.99 3.43-11.42 2.51-5.43 4.71-5.43.36 0 .56.16.21.15.21.3v.16q-1.59 0-3.3 5.3-1.72 5.3-2.49 11.23h.51q2.72 0 3.59-1.94.25-.51.25-1.03 0-.51-.33-.76-.33-.26-.64-.26.21-.72 1.08-.72 1.33 0 1.33 1.77t-1.46 2.94q-1.46 1.18-3.76 1.18h-.72q-.21 2.15-.21 3.64 0 3.53 1.18 3.53-.51 1.02-1.48 1.02-2.87 0-2.87-5.37 0-1.44.26-3.18-1.9-.35-4.95-1.3-3.04-.95-3.09-.95-2.26 2.61-4.51 2.61t-2.56-1.38q-.05-.21-.05-.41 0-1.02 1.2-1.66 1.21-.64 2.36-.64t2.58.2q1.69-2.87 2.64-7.42.95-4.56.95-8.4 0-3.84-1.23-3.84.51-1.02 1.48-1.02zm-8.75 22.78q0 .72 1.46.72t2.84-1.95q-.77-.15-1.49-.15-2.35 0-2.76 1.07-.05.16-.05.31zm32.77 5.27q1.17 0 1.17 1.59t-1.53 2.56q-.77.51-1.33.51-.82 0-1.03-.66.46 0 .67-1 .2-1 .64-2 .43-1 1.41-1zm40.55-30.72q1.23 0 1.23 2.44 0 2.43-1.82 4.37-1.82 1.95-4.84 1.95-1.74 0-3.23-.51-1.99-.72-2.71-1.59-.15.87-.43 3.33-.29 2.46-.54 3.74 1.28-.26 2.46-.26 6.86 0 9.26 4.86 1.03 2.05 1.03 4.36 0 2.3-.98 4.86-1.94 5.02-6.5 7.37-2.71 1.44-5.89 1.44-5.32 0-7.27-3.54-1.02-1.84-1.02-3.61 0-1.76.82-3.4 1.79-3.53 5.48-3.53.51 0 .53.53.03.54-.53.54-2.46 0-3.64 2.82-.61 1.43-.61 2.86 0 1.44.71 2.87 1.49 3.18 5.48 3.18 4.66 0 7.58-4.61 2.2-3.48 2.2-7.43 0-6.09-4.3-7.88-1.38-.62-2.71-.62t-2.26.26q-1.02 5.27-3.43 5.27-1.69 0-1.69-1.58 0-1.74 2.05-3.28.98-.72 2.1-1.13.16-.97.39-2.76.23-1.79.38-2.89t.46-2.33q.51-2.41 1.69-2.41h.05q.56 0 1.28.61 2.15 1.95 5.1 1.95 2.94 0 4.01-2.56.31-.82.31-1.48 0-.67-.33-1.08-.33-.41-.74-.41-.05 0 0-.2.15-.52.87-.52zm-16.49 18.49q0 .51.56.56 1.49 0 2.31-3.89-2.1.97-2.72 2.66-.15.36-.15.67zm27.5 12.23q1.17 0 1.17 1.59t-1.53 2.56q-.77.51-1.33.51-.82 0-1.03-.66.46 0 .67-1 .2-1 .64-2 .43-1 1.41-1zm38.55-6.4q1.84 0 1.84 2.97t-1.74 5.43q-2.3 3.33-6.3 3.33-1.84 0-3.27-.77-1.44-.77-2.2-1.69-2-2.41-3.36-2.41-1.36 0-2.07 1-.72 1-.72 1.77 0 .61-1 .64-1 .02-1-.64 0-1.69 4.87-5.58 4.91-3.94 9.01-8.4 2.1-2.2 3.48-4.96 1.38-2.77 1.38-5.38 0-4.66-4.45-4.66-3.84 0-5.94 4.15-1.18 2.45-1.18 4.76 0 .92.21 1.84.56 2.66 2.56 2.66 0 .72-1.13.72-3.17 0-4.1-3.12-.3-1.03-.3-2.05 0-2.3 1.38-4.81 3.02-5.43 9.27-5.43 3.48 0 5.27 1.66 1.79 1.67 1.79 4.28 0 2.61-1.15 4.94-1.15 2.33-3.3 4.53t-4.1 3.87q-1.94 1.66-4.66 3.73-2.71 2.08-3.84 3.1.36-.05.62-.05 1.23 0 3.71 1.33t4.74 1.33q3.78 0 5.47-3.12.72-1.33.72-2.2 0-2.1-1.28-2.1.1-.67.77-.67zm25.75-10.13q0-9.12-4.71-9.12-3.17 0-5.27 2.51-.92 1.08-1.79 1.08-.52 0-.26-.46 3.12-4.51 8.17-4.51 5.04 0 6.63 5.58.61 2.2.61 5.33 0 3.12-1.38 7.52-2.25 7.32-6.71 10.7-2.51 1.95-5.19 1.95-2.69 0-4.56-1.31-1.87-1.3-2.64-3.4-.97-2.72-.97-5.3 0-2.59.61-4.99.62-2.41 1.69-4.74 1.08-2.33 2.82-4.07 1.74-1.74 3.74-2.3.3-.11.48.15t.13.61q-.05.36-.26.41-1.63.46-3.02 3.08-2.71 4.91-2.71 12.95 0 3.23 1.18 5.5 1.18 2.28 3.38 2.28 4.35 0 7.37-7.11 2.66-6.2 2.66-12.34zm17.21 21.24q-3.03 0-3.03-6.34 0-3.23 1.05-8.02 1.05-4.78 3.2-9.8-4.35 2.46-6.93 5.27-2.59 2.82-2.59 6.86 0 .92.36 1.18.36.26.46.26-.1.61-.87.61t-1.48-.77q-.72-.77-.72-2.58 0-1.82 1.07-3.82 1.08-1.99 3.18-3.63 3.43-2.72 8.29-5.07 3.33-7.12 6.4-7.12 1.59 0 1.59 1.64 0 1.43-1.41 2.64-1.41 1.2-4.32 2.84-2.56 6.96-3.64 15.72-.36 3.17-.36 5.22 0 3.69 1.23 3.89-.51 1.02-1.48 1.02zm8.39-31.74q-1.69 0-3.53 4.4 4.15-2.2 4.15-3.73 0-.67-.62-.67zm6.2 30.87q5.27 0 9.11-6.81t3.84-14.9q0-5.47-2.41-7.32-.92-.71-2.15-.71-3.78 0-6.4 4.81-2.09 3.84-2.09 7.83 0 5.07 3.02 5.58.25.05.56.05 2.66 0 4.56-3.02 1.89-3.02 1.99-6.4 0-.71.54-.51.54.21.49.87-.16 3.84-2.46 7.07-2.3 3.22-5.99 3.22-4.25 0-5.53-4.14-.41-1.49-.41-3.66 0-2.18 1.28-5.25 2.2-5.07 6.5-6.86 1.74-.72 3.64-.72 5.73 0 7.68 5.48.82 2.3.82 5.35t-1.33 7.04q-2.41 7.32-7.58 11.31-3.94 3.02-8.5 3.02-2.56 0-3.92-1.28-1.36-1.28-1.36-2.66 0-1.38 1.08-1.53.92.05 1.08.76 0 1.39.94 2.39.95.99 3 .99z"/>
</svg>