<svg width="555.989" height="122.595" xmlns="http://www.w3.org/2000/svg" viewBox="-27.994 13.703 555.989 122.595">
    <path stroke="#fff" fill="none" d="M99.302 63.64l-3.13-.98q-2.45 3.79-5.22 13.62-1.13 3.9-2.48 8.22-1.36 4.33-3.13 8.09-1.76 3.76-4.04 6.84-2.28 3.07-5.66 4.86-3.38 1.79-7.58 1.79-7.52 0-10.95-5.37-1.9-3.02-1.9-6.51 0-1.43.31-2.91 1.08-4.97 4.86-7.07 2-1.13 4.46-1.13 5.27 0 7.12 4.1.76 1.69.76 3.46 0 1.76-.71 3.55-1.74 4.3-5.69 4.3-.61 0-1.02-.28-.41-.28-.62-.84 1.39 0 2.62-.72 2.04-1.23 3.17-4.45.36-1.08.36-1.77t-.1-1.59q-.11-.89-.67-2.07-.56-1.18-1.94-1.89-1.39-.72-3.28-.72-4.87 0-7.17 4.3-1.33 2.46-1.33 4.66t.46 3.94q1.33 4.87 5.58 6.71 2 .87 5.07.87 3.07 0 6.22-1.72 3.15-1.71 5.43-4.66 2.28-2.94 4.12-6.57 1.84-3.64 3.35-7.86 1.51-4.23 2.74-8.02 3.28-9.72 5.69-13.56-7.74-2.41-11.22-2.41-6.6 0-9.83 5.02-1.84 2.86-1.84 5.88 0 .87.2 1.8.57 3.38 3.02 4.04.47.1.93.1-.31 1.08-1.69 1.08-3.13 0-4.41-3.33-.61-1.59-.61-3.53 0-1.95 1.02-4.35 2.15-5.18 7.58-7.07 2.56-.87 5.86-.87 3.31 0 11.65 2.66 2.51-3.58 5.74-3.58.4 0 .61.25.2.26.26.72-3.03 0-5.38 3.02 2.3.72 2.97.97 2.15-3.73 4.04-3.73.87 0 1.03.51l.05.15q-1.43 0-3.02 3.79l7.32 2.36q3.43-6.45 7.17-6.45.51 0 .82.25.3.26.41.77-3.84 0-7.07 5.84 2.77.71 3.43.82 3.02-5.99 5.43-5.99.87 0 1.02.51l.05.15q-1.69 0-4.09 5.68.36.06.97.06 5.07 0 7.12-3.03.87-1.17.87-1.99 0-2.31-2.05-2.31.46-.71 1.48-.71 2 0 2.62 1.99.15.62.15 1.18 0 1.69-1.43 3.33-2.51 2.76-7.74 2.76-1.22 0-2.4-.2-2.25 5.78-3.87 13.36-1.61 7.58-1.61 13.52 0 5.94 2.41 5.94-.52 1.02-1.49 1.02-3.99 0-3.99-8.75 0-5.17 1.64-12.32 1.63-7.14 4.45-13.23-1.33-.26-3.48-.87-2.25 4.4-4.74 12.87-2.48 8.48-4.4 13.91-1.92 5.42-3.87 5.42-3.89 0-3.89-9.32 0-5.68 1.67-13.31 1.66-7.63 4.43-13zm-2.67 28.41q0 4.3 1.05 4.3t2.61-4.91q1.57-4.92 3.9-12.6t4.58-12.13q-4.61-1.43-7.22-2.3-2.25 6.04-3.74 15.61-1.18 7.73-1.18 12.03zm25.5 7.58q-4.04 0-4.04-6.09 0-3.53 1.84-7.73 2.56-5.69 6.5-7.43 1.38-.56 2.79-.56 1.41 0 2.23.82.82.82.82 1.84 0 .46-.49.44-.48-.03-.48-.49 0-.46-.49-.84-.49-.39-1.41-.39-3.22 0-5.84 5.79-2.45 5.37-2.45 10.19 0 2.97 1.3 2.97 1.31 0 3.18-2.23t3.45-5.2q3.43-6.24 4.05-8.04.61-1.79 1.33-1.79 1.28 0 1.28 2.15 0 .67-.15 1.54-1.69 8.19-1.82 9.47-.13 1.28-.13 1.84 0 2.46 1.18 2.46 1.33 0 3.74-3.53 2.4-3.53 4.14-7.07l1.74-3.53h1.39q-.31.61-.8 1.66-.48 1.05-1.92 3.74-1.43 2.69-2.74 4.74-1.3 2.05-2.92 3.71-1.61 1.66-2.79 1.66-3.78 0-3.78-5.53 0-1.84.4-4.3h-.35q-5.23 9.73-8.76 9.73zm21.56-.05q-1.44 0-1.44-2.2 0-1.18 2.87-17.15.2-1.08.92-1.08.92 0 1.38 1.33.26.72.26 1.56 0 .85-.2 1.82l-.82 4.2h.25q4.41-10.24 8.09-10.24 2.05 0 2.72 2 .25.76.25 1.76t-.56 2.18q-.97 2-2.92 2-.41 0-.64-.21-.23-.2-.28-.56.41 0 1.07-1.51.67-1.51.77-2.79.1-1.28-.87-1.49-1.79 0-4.25 4.66t-3.94 8.91q-1.49 4.25-1.74 5.53-.26 1.28-.92 1.28zm27.23-13.31q2-2.92 2-5.02 0-2.1-1.38-2.1-1.64 0-3.58 2.74-1.95 2.74-3.49 6.53-2.97 7.32-3.63 10.14-.31 1.02-.87 1.02-.92 0-1.38-1.13-.26-.61-.26-1.3 0-.69.41-2.56t1.36-6.58q.94-4.71 1.61-7.81.66-3.1 1.53-6.96.88-3.87 1.67-6.3.79-2.43 1.82-4.68 1.94-4.41 4.45-4.41 2.3 0 2.3 3.07 0 .77-.15 1.8-.77 4.86-4.04 10.03-2.36 3.74-4.46 4.71-.36 1.9-.97 5.43-.62 3.53-.87 4.91h.25q4.36-9.88 8.86-9.88 3.38 0 3.38 3.74 0 2.46-2.07 5.32-2.08 2.87-5.56 3.69 1.74.67 2.95 2.33 1.2 1.66 1.66 3.2 1.18 4.05 2.36 4.05 0 .35-.46.71-.47.36-1.08.36-1.74 0-2.74-1.64-1-1.64-1.3-3.58-.31-1.95-1.13-3.59-.82-1.63-2.25-1.63h-.11q-.46 0-.66-.72 3.17 0 5.83-3.89zm1.39-25.24q0-1.64-.92-2-3.03 0-6.25 16.9 2.05-1.44 4.25-5.74 2.92-5.78 2.92-9.16zm20.78 6.96q-1.53 1.89-3.45 3.69-1.92 1.79-2.46 1.79t-.54-.57q0-.56 1.21-2.43 1.2-1.87 2.89-3.76.61-.77 1.18-.77.56 0 1.07.23t.51.72q0 .49-.41 1.1zm-11.46 24.11q0 6.2 4.4 6.2 1.64 0 3.45-1.46 1.82-1.46 3.31-3.51 3.27-4.71 4.61-7.68l.66-1.43h1.38q-.87 2.05-2.56 5.04-1.69 3-3.22 5.05-1.54 2.04-3.64 3.71-2.1 1.66-3.99 1.66-7.58 0-7.58-8.5 0-3.94 2.31-7.88 3.17-5.48 7.83-5.48 3.28 0 3.28 3.58 0 2.67-2.05 5.53-2.87 3.89-6.71 3.95-.56 0-.72-.52l-.05-.2q2.66 0 5.1-3.51 2.43-3.51 2.43-5.86 0-1.59-1.23-1.59-2.71 0-5.07 4.76-1.94 4.05-1.94 8.14zm15-14.89q0-.57.71-.57h2.67q.25-1.02.66-2.56l.72-2.66q.31-1.18.54-2.15.23-.97.89-.97.87 0 1.23 1.33.15.56.15 1.38 0 .82-.3 2.1l-.98 3.53h3.18q.46 0 .64.31t0 .59q-.18.28-.64.28h-3.48q-3.18 11.93-3.18 16.9 0 3.63 1.64 3.63 1.33 0 3.74-3.53t4.15-7.07l1.74-3.53h1.38q-.31.61-.79 1.66-.49 1.05-1.92 3.74-1.44 2.69-2.74 4.74-1.31 2.05-2.92 3.71-1.61 1.66-3 1.66-1.38 0-2.38-.89-1-.9-1.28-2.56-.28-1.67-.28-3.41 0-4.04 2.87-15.05h-2.31q-.41 0-.56-.23-.15-.23-.15-.38zm15.46 22.42q-4.05 0-4.05-6.09 0-3.53 1.85-7.73 2.56-5.69 6.5-7.43 1.38-.56 2.79-.56 1.41 0 2.23.82.82.82.82 1.84 0 .46-.49.44-.49-.03-.49-.49 0-.46-.48-.84-.49-.39-1.41-.39-3.23 0-5.84 5.79-2.45 5.37-2.45 10.19 0 2.97 1.3 2.97 1.31 0 3.18-2.23 1.86-2.23 3.45-5.2 3.43-6.24 4.05-8.04.61-1.79 1.33-1.79 1.28 0 1.28 2.15 0 .67-.16 1.54-1.69 8.19-1.81 9.47-.13 1.28-.13 1.84 0 2.46 1.18 2.46 1.33 0 3.73-3.53 2.41-3.53 4.15-7.07l1.74-3.53h1.38q-.3.61-.79 1.66-.49 1.05-1.92 3.74-1.43 2.69-2.74 4.74-1.3 2.05-2.92 3.71-1.61 1.66-2.79 1.66-3.79 0-3.79-5.53 0-1.84.41-4.3h-.36q-5.22 9.73-8.75 9.73zm39.01 0q-4.04 0-4.04-6.09 0-3.53 1.84-7.73 2.56-5.69 6.5-7.43 1.39-.56 2.8-.56 1.4 0 2.22.82.82.82.82 1.84 0 .46-.48.44-.49-.03-.49-.49 0-.46-.49-.84-.48-.39-1.41-.39-3.22 0-5.83 5.79-2.46 5.37-2.46 10.19 0 2.97 1.31 2.97 1.3 0 3.17-2.23 1.87-2.23 3.46-5.2 3.43-6.24 4.04-8.04.62-1.79 1.33-1.79 1.28 0 1.28 2.15 0 .67-.15 1.54-1.69 8.19-1.82 9.47-.13 1.28-.13 1.84 0 2.46 1.18 2.46 1.33 0 3.74-3.53 2.4-3.53 4.15-7.07l1.74-3.53h1.38q-.31.61-.8 1.66-.48 1.05-1.92 3.74-1.43 2.69-2.73 4.74-1.31 2.05-2.92 3.71-1.62 1.66-2.79 1.66-3.79 0-3.79-5.53 0-1.84.41-4.3h-.36q-5.22 9.73-8.76 9.73zm39.53-4.71q.56 0 1.15.08.59.07 1 .13.41.05 1.13.28.71.23 1 .3.28.08 1.12.41.85.34 1 .41.15.08 1.15.49 1 .41 1.05.46 2.51-2.87 4.25-8.91-7.63-.51-10.96-6.14-1.79-3.13-1.79-6.76 0-2.1.57-4.35 1.74-6.4 7.22-10.04 4.76-3.12 11.16-3.12 4.5 0 8.06 1.48 3.56 1.49 5.68 3.97 2.13 2.49 3.41 5.71 1.33 3.38 1.33 7.02 0 3.63-.59 7.09-.59 3.45-2.25 6.68-1.67 3.22-3.82 5.71-2.15 2.48-5.19 3.96-3.05 1.49-6.89 1.49t-8.45-1.79q-2.92 2.2-7.06 2.2-5.48 0-6.97-2.56-.35-.67-.35-1.46 0-.79 1.02-1.77 1.02-.97 3.02-.97zm11.42 3.69q3.84 1.33 7.11 1.33 3.28 0 5.74-1.38 2.46-1.39 4.25-3.74 1.79-2.36 3.22-5.4 1.44-3.05 2-6.4.56-3.36.56-6.71t-1.05-6.4q-1.04-3.05-2.84-5.4-1.79-2.36-4.86-3.74-3.07-1.38-7.02-1.38-8.39 0-12.85 5.94-3.12 4.09-3.12 9.21 0 6.97 4.76 10.55 2.56 1.89 5.89 2.25.61-2.45 1.46-6.63.84-4.17 1.46-6.86.61-2.69 1.53-5.5 1.9-5.69 5.69-5.69.71 0 .97.67l.05.21q-3.28 0-4.56 5.32-.66 2.61-1.04 5.32-.39 2.72-.93 6.58-.53 3.87-1.15 6.53 3.59-.51 6.02-2.71 2.43-2.2 3.4-5.33.05-.25.34-.3.28-.05.46.1.18.15.12.46-1.12 3.48-3.84 5.94-2.71 2.46-6.81 3.02-1.63 6.91-4.96 10.14zm-13.93-.57q0 .98 1.38 1.62 1.39.64 3.95.64 2.56 0 4.86-1.9-5.12-2.2-7.35-2.2-2.22 0-2.74 1.28-.1.31-.1.56zm46.85-5.22q0 5.38 2.87 5.38 1.94 0 3.63-2.41 3.23-4.5 3.94-11.88-1.79-.77-2.5-2.51-.47-1.07-.47-1.81 0-.75.21-1.31.46-1.38 1.69-1.38t1.87 1.56q.64 1.56.64 3.97v.36q.61.2 1.82.2 1.2 0 2.12-.97.92-.97.92-1.79 0-.21.26-.29.25-.07.48.03.23.1.23.31 0 1.48-1.25 2.81t-3.35 1.33q-.52 0-1.33-.1-.31 3.48-1.46 6.89-1.16 3.4-3.2 5.89-2.05 2.48-4.41 2.48-4.45 0-5.48-4.76-.25-1.38-.25-2.82 0-3.22 1.48-6.91 1.95-4.81 4.82-5.99 1.48-.51 2.04-.15.57.35.72.82-2.35 0-4.2 4.4-1.84 4.4-1.84 8.65zm18.18 6.76q-1.44 0-1.44-2.2 0-1.18 2.87-17.15.15-1.08.92-1.08.92 0 1.38 1.33.26.72.26 1.56 0 .85-.21 1.82l-.76 3.89h.3q4.51-10.13 8.71-10.13 1.43 0 2.28 1.02.84 1.02.84 2.46 0 2.66-.82 6.65h.21q4.35-9.47 8.55-9.47 1.38 0 2.25 1.02.87 1.03.87 2.72 0 1.69-1.31 7.17-1.3 5.47-1.3 7.73 0 3.33 1.23 3.33 0 .35-.46.71t-1.08.36q-2.97 0-2.97-4.66 0-2.92 1.49-8.42 1.48-5.5 1.48-7.07 0-1.56-1.02-1.56-1.9 0-4.43 4.58-2.54 4.59-4.05 8.79-1.51 4.19-1.76 5.4-.26 1.2-.92 1.2-1.44 0-1.44-2.2 0-.82.87-5.79 1.69-9.11 1.69-10.88 0-1.76-1.02-1.76-1.38 0-3.23 2.84-1.84 2.84-3.33 6.58-3.22 7.88-3.78 10.19-.21 1.02-.87 1.02zm37.78-30.67q1.18 0 1.18 1.59t-1.54 2.56q-.77.51-1.33.51-.82 0-.97-.51l-.05-.16q.46 0 .66-.99.21-1 .64-2 .44-1 1.41-1zm-3.28 29.44q1.34 0 3.74-3.53 2.41-3.53 4.15-7.07l1.74-3.53h1.38q-.3.61-.79 1.66-.49 1.05-1.92 3.74-1.43 2.69-2.74 4.74-1.31 2.05-2.92 3.71-1.61 1.66-2.79 1.66-3.79 0-3.79-4.91 0-3.69 2.1-11.98.21-.87.33-1.33.13-.46.29-1.21.15-.74.3-1.35.26-1.08.92-1.08.93 0 1.34 1.33.2.62.2 1.49t-.2 1.81q-.21.95-.67 2.8-.46 1.84-.72 3.02-.25 1.17-.56 2.86-.56 2.82-.56 5 0 2.17 1.17 2.17zm8.86 1.23q-1.43 0-1.43-2.2 0-1.18 2.87-17.15.15-1.08.92-1.08.92 0 1.38 1.33.26.72.26 1.56 0 .85-.21 1.82l-.82 4.1h.31q4.61-10.34 8.81-10.34 1.63 0 2.5.99.87 1 .87 2.74 0 1.74-1.38 7.53-1.38 5.78-1.38 8.04 0 3.33 1.23 3.33 0 .35-.46.71t-1.08.36q-2.97 0-2.97-4.66 0-2.87 1.56-8.68 1.57-5.81 1.57-7.42 0-1.61-1.28-1.61-1.85 0-4.43 4.81-2.59 4.81-4.15 9.19-1.56 4.38-1.79 5.5-.23 1.13-.9 1.13zm27.04-30.67q1.17 0 1.17 1.59t-1.53 2.56q-.77.51-1.33.51-.82 0-.98-.51l-.05-.16q.46 0 .67-.99.2-1 .64-2 .43-1 1.41-1zm-3.28 29.44q1.33 0 3.74-3.53 2.4-3.53 4.14-7.07l1.74-3.53h1.39q-.31.61-.8 1.66-.48 1.05-1.92 3.74-1.43 2.69-2.74 4.74-1.3 2.05-2.91 3.71-1.62 1.66-2.79 1.66-3.79 0-3.79-4.91 0-3.69 2.1-11.98.2-.87.33-1.33.13-.46.28-1.21.15-.74.31-1.35.25-1.08.92-1.08.92 0 1.33 1.33.2.62.2 1.49t-.2 1.81q-.2.95-.67 2.8-.46 1.84-.71 3.02-.26 1.17-.57 2.86-.56 2.82-.56 5 0 2.17 1.18 2.17zm19.66-12.08q2-2.92 2-5.02 0-2.1-1.39-2.1-1.63 0-3.58 2.74-1.95 2.74-3.48 6.53-2.97 7.32-3.64 10.14-.3 1.02-.87 1.02-.92 0-1.38-1.13-.26-.61-.26-1.3 0-.69.41-2.56t1.36-6.58q.95-4.71 1.61-7.81.67-3.1 1.54-6.96.87-3.87 1.66-6.3.8-2.43 1.82-4.68 1.95-4.41 4.46-4.41 2.3 0 2.3 3.07 0 .77-.15 1.8-.77 4.86-4.05 10.03-2.35 3.74-4.45 4.71-.36 1.9-.98 5.43-.61 3.53-.87 4.91h.26q4.35-9.88 8.86-9.88 3.38 0 3.38 3.74 0 2.46-2.08 5.32-2.07 2.87-5.55 3.69 1.74.67 2.94 2.33 1.2 1.66 1.67 3.2 1.17 4.05 2.35 4.05 0 .35-.46.71t-1.08.36q-1.74 0-2.73-1.64-1-1.64-1.31-3.58-.31-1.95-1.13-3.59-.82-1.63-2.25-1.63h-.1q-.46 0-.67-.72 3.18 0 5.84-3.89zm1.38-25.24q0-1.64-.92-2-3.02 0-6.25 16.9 2.05-1.44 4.25-5.74 2.92-5.78 2.92-9.16z"/>
</svg>