<svg version="1.1" xmlns="http://www.w3.org/2000/svg" width="20" height="20" viewBox="0 0 1024 1024">
    <path d="M512 56.889c-251.362 0-455.111 203.749-455.111 455.111s203.749 455.111 455.111 455.111 455.111-203.749 455.111-455.111-203.749-455.111-455.111-455.111zM512 853.333c-188.222 0-341.333-153.111-341.333-341.333s153.111-341.333 341.333-341.333 341.333 153.111 341.333 341.333-153.111 341.333-341.333 341.333z"></path>
    <path d="M683.221 455.111h-114.332v-114.332c0-31.111-25.223-56.334-56.334-56.334h-1.111c-31.111 0-56.334 25.223-56.334 56.334v114.332h-114.332c-31.111 0-56.334 25.223-56.334 56.334v1.111c0 31.111 25.223 56.334 56.334 56.334h114.334v114.332c0 31.111 25.223 56.334 56.334 56.334h1.111c31.111 0 56.334-25.223 56.334-56.334v-114.334h114.332c31.111 0 56.334-25.223 56.334-56.334v-1.111c-0.002-31.109-25.225-56.332-56.336-56.332z"></path>
</svg>
